<?xml version="1.0" encoding="utf-8"?>
<!-- Generator: Adobe Illustrator 23.0.0, SVG Export Plug-In . SVG Version: 6.00 Build 0)  -->
<svg version="1.1" id="Capa_1" xmlns="http://www.w3.org/2000/svg" xmlns:xlink="http://www.w3.org/1999/xlink" x="0px" y="0px"
	 viewBox="0 0 493.3 493.3" style="enable-background:new 0 0 493.3 493.3;" xml:space="preserve">
<style type="text/css">
	.st0{fill:#B6BFC7;stroke:#000000;stroke-width:2;stroke-linejoin:bevel;stroke-miterlimit:10;}
	.st1{fill:#B6BFC7;}
	.st2{fill:#B6BFC7;stroke:#000000;stroke-width:2;stroke-miterlimit:10;}
</style>
<polyline class="st0" points="262.2,425 255,436.6 266.6,443.8 "/>
<g>
	<g>
		<path class="st1" d="M214,344.2c1.9,7.8,8.8,13.3,16.9,13.3c1.4,0,2.7-0.2,4.1-0.5l240.7-58.1c9.3-2.2,15-11.6,12.8-21L444.4,95.3
			c-1.9-7.8-8.8-13.3-16.9-13.3c-1.4,0-2.7,0.2-4.1,0.5l-240.7,58.1c-4.5,1.1-8.3,3.9-10.7,7.8c-2.4,4-3.1,8.6-2.1,13.1L214,344.2z
			 M328.5,129.1L354,234.8l-42.8,10.3l-25.5-105.7L328.5,129.1z M263.3,144.8l28.2,116.9c1.3,5.3,6,8.8,11.2,8.8
			c0.9,0,1.8-0.1,2.7-0.3l65.2-15.7c6.2-1.5,10-7.7,8.5-13.9l-28.2-116.9l72.5-17.5l41.5,171.6l-229.7,55.5l-41.5-171.6L263.3,144.8
			z"/>
		<path class="st1" d="M493,347.7c-1.5-6.2-7.7-10-13.9-8.5l-234.2,56.6c-10-22.4-32.2-37.3-57.5-37.3c-1.1,0-2.3,0-3.4,0.1
			L101.6,17.5c-1.5-6.2-7.7-10-13.9-8.5L8.8,28.1c-6.2,1.5-10,7.7-8.5,13.9S8,52,14.2,50.5l67.7-16.4L161.6,364
			c-11.6,5.1-21.3,13.6-28.1,24.7c-8.8,14.4-11.4,31.3-7.5,47.7c6.9,28.4,32,48.2,61.2,48.2c5,0,10-0.6,14.8-1.8
			c30-7.2,49.7-34.9,48.1-64.6l234.2-56.6C490.7,360.1,494.5,353.9,493,347.7z M196.8,460.5c-3.1,0.8-6.3,1.1-9.4,1.1
			c-18.5,0-34.5-12.6-38.9-30.6c-2.5-10.4-0.8-21.1,4.7-30.3s14.4-15.5,24.8-18c3.1-0.8,6.3-1.1,9.4-1.1c18.5,0,34.5,12.6,38.9,30.6
			C231.5,433.6,218.2,455.3,196.8,460.5z"/>
	</g>
	<polyline class="st0" points="481.3,393.9 489,382.6 477.7,374.9 	"/>
	<line class="st2" x1="483" y1="383.8" x2="263.2" y2="434.3"/>
</g>
</svg>
